PathFileType	3	(X/Y/Z)	E:\ViconData\BIOM9541 2025\Week 7\Wed1100\Hanif 90 squat 5 Squat 01.trc
DataRate	CameraRate	NumFrames	NumMarkers	Units	OrigDataRate	OrigDataStartFrame	OrigNumFrames
200.0	200.0	10	19	mm	200.0	695	1853	
Frame#	Time	C7			CLAV			RBAK			LASI			RASI			LPSI			RPSI			LTHI			LKNE			LTIB			LANK			LHEE			LTOE			RTHI			RKNE			RTIB			RANK			RHEE			RTOE			
		X1	Y1	Z1	X2	Y2	Z2	X3	Y3	Z3	X4	Y4	Z4	X5	Y5	Z5	X6	Y6	Z6	X7	Y7	Z7	X8	Y8	Z8	X9	Y9	Z9	X10	Y10	Z10	X11	Y11	Z11	X12	Y12	Z12	X13	Y13	Z13	X14	Y14	Z14	X15	Y15	Z15	X16	Y16	Z16	X17	Y17	Z17	X18	Y18	Z18	X19	Y19	Z19	
695	3.47	330.1532	1090.8296	-1213.1022	185.28325	1008.4685	-1206.7781	352.72116	1010.0042	-1358.5735	273.86682	649.94415	-1082.1609	267.29648	664.94305	-1341.8345	441.79248	714.8631	-1166.4048	441.68237	712.56659	-1240.7081	185.68565	476.38217	-920.85089	107.38853	365.25851	-885.53876	216.00787	189.26938	-916.51715	299.16116	64.215714	-972.10602	323.26178	54.694592	-1034.6639	162.45134	38.935139	-943.16406	294.54105	585.34766	-1427.0038	113.86456	358.59662	-1518.2335	149.59865	280.7522	-1517.6478	291.82449	70.411667	-1435.9246	318.24152	52.327137	-1364.4258	164.50688	41.211433	-1466.0077
696	3.475	329.95819	1087.5068	-1213.0538	185.57271	1004.629	-1207.3735	352.66855	1006.6896	-1358.5874	273.92624	646.7962	-1081.9314	267.37949	661.75293	-1341.7345	441.95831	711.49304	-1166.6083	441.88165	709.30017	-1240.6909	185.1223	474.91388	-920.09552	106.56558	364.38312	-884.76123	215.49298	188.87085	-916.12164	299.46002	64.322411	-972.38007	323.22079	54.663803	-1034.7355	162.47255	38.862053	-943.1662	294.68283	583.03925	-1426.9758	112.86484	357.68573	-1518.9158	148.74689	279.91418	-1518.1383	291.75308	70.338699	-1435.8606	318.12814	52.339462	-1364.4015	164.46318	41.147312	-1466.0034
697	3.48	329.78131	1084.2854	-1213.0481	184.89078	1001.6149	-1206.6372	352.56949	1003.4747	-1358.6011	274.15543	643.57135	-1082.108	267.46225	658.71008	-1341.79	442.09735	708.27246	-1166.6241	441.94537	706.01764	-1240.5718	184.97481	473.89685	-919.6012	105.68539	363.57928	-883.86664	215.10835	188.45418	-915.78265	299.4075	64.337425	-972.29315	323.13873	54.741356	-1034.7759	162.44841	38.875053	-943.15942	294.75366	580.8208	-1427.0132	111.84128	356.82993	-1519.5497	147.90898	279.20679	-1518.6687	291.64456	70.328674	-1435.8308	318.02051	52.376709	-1364.3477	164.44867	41.16304	-1466.0251
698	3.485	329.58286	1081.0474	-1213.0182	182.04573	1000.0052	-1200.266	352.35916	1000.2672	-1358.5109	274.16824	640.5155	-1081.8906	267.56448	655.63696	-1341.6285	442.20291	705.16309	-1166.3849	441.9819	702.77924	-1240.4032	184.31863	472.11197	-919.21954	104.8458	362.74573	-883.08954	214.70692	187.9657	-915.50616	302.12027	65.989876	-976.1792	323.06494	54.900509	-1034.8002	162.44388	38.892197	-943.09857	294.89722	578.60742	-1426.8896	110.89693	356.0784	-1520.2074	147.12958	278.55121	-1519.1821	291.50891	70.414909	-1435.7987	317.83728	52.511475	-1364.1199	164.39999	41.234177	-1466.0597
699	3.49	329.39536	1077.8613	-1212.9897	185.05869	994.68701	-1207.3348	352.22906	997.12274	-1358.5786	274.3327	637.32751	-1081.845	267.62253	652.63196	-1341.6914	442.23303	702.00714	-1165.969	442.10034	699.50763	-1240.3502	183.92418	470.77667	-918.82648	104.01205	361.92279	-882.40027	214.19025	187.53333	-915.12665	298.28891	63.352367	-972.44232	322.95828	55.008198	-1034.8423	162.39972	38.948551	-943.09106	294.99484	576.43958	-1426.9337	109.96626	355.29333	-1520.8185	146.3353	277.90924	-1519.6678	291.42245	70.415657	-1435.7766	317.71075	52.615002	-1363.9264	164.36998	41.25172	-1466.0759
700	3.495	329.17416	1074.6764	-1212.9432	184.36174	991.99762	-1206.6384	352.00305	993.88788	-1358.4705	274.35953	634.34381	-1081.7362	267.67557	649.62488	-1341.583	442.40707	698.8869	-1166.0334	442.20715	696.33569	-1240.3083	183.78311	469.91495	-918.47888	103.15472	361.17828	-881.70447	213.74803	187.16924	-914.81055	301.58734	65.690659	-976.14551	322.94098	55.04903	-1034.8949	162.4024	38.90733	-943.14081	295.15659	574.25311	-1426.8514	109.091	354.4101	-1521.4147	145.53374	277.12677	-1520.0907	291.35495	70.35675	-1435.7371	317.58795	52.659939	-1363.8105	164.35342	41.211212	-1466.0881
701	3.5	328.95078	1071.5341	-1212.9019	184.74298	988.25916	-1207.3486	351.79712	990.7735	-1358.473	274.50168	631.32892	-1081.6522	267.76376	646.59296	-1341.5681	442.56308	695.80267	-1166.2106	442.37466	693.38177	-1240.2865	183.097	468.41684	-918.12097	102.367	360.51547	-881.0412	213.32463	186.76082	-914.50366	301.44223	65.33802	-976.29907	322.91269	55.04583	-1034.9485	162.37292	38.868824	-943.16876	295.34827	572.00146	-1426.825	108.2581	353.61411	-1522.0632	144.84705	276.41608	-1520.5134	291.27161	70.286591	-1435.6924	317.50735	52.665524	-1363.7794	164.33453	41.18314	-1466.1449
702	3.505	328.76053	1068.4998	-1212.9042	184.21202	985.5376	-1207.0513	351.6904	987.77271	-1358.4938	274.54251	628.34485	-1081.5718	267.80157	643.66553	-1341.4471	442.6955	692.78839	-1166.33	442.53268	690.54443	-1240.2142	182.65662	467.20511	-917.8252	101.54524	359.80923	-880.32098	212.89603	186.34175	-914.27979	301.3757	65.329628	-976.3349	322.87363	55.072052	-1035.0027	162.34486	38.837959	-943.14673	295.42886	569.92871	-1426.7567	107.46717	352.76089	-1522.6055	144.13318	275.71765	-1520.972	291.16901	70.255798	-1435.6288	317.43924	52.6558	-1363.7706	164.31039	41.084366	-1466.1045
703	3.51	328.47183	1065.4617	-1212.802	183.81024	982.39362	-1206.6913	351.45511	984.76764	-1358.4532	274.68265	625.3902	-1081.4692	267.81784	640.82275	-1341.4557	442.79431	689.79163	-1166.0903	442.54822	687.49341	-1240.1321	182.58488	466.44336	-917.6687	100.82957	359.05557	-879.84131	212.46542	186.00632	-914.02936	301.23975	65.312477	-976.30273	322.72729	55.154423	-1035.0756	162.34917	38.837566	-943.09912	295.59027	567.85272	-1426.6812	106.61363	352.12457	-1523.2037	143.37198	275.09738	-1521.422	291.05972	70.28788	-1435.5505	317.32156	52.757843	-1363.5844	164.263	41.114162	-1466.101
704	3.515	328.15378	1062.464	-1212.6658	183.57135	979.18866	-1206.4451	351.22595	981.80475	-1358.4374	274.78232	622.42987	-1081.3994	267.78409	638.11993	-1341.4198	442.85992	687.04779	-1165.8961	442.59451	684.5495	-1240.0083	181.90685	464.96783	-917.23645	100.06154	358.40039	-879.22424	212.11841	185.61172	-913.85126	301.12906	65.330597	-976.28174	321.95468	54.930695	-1035.009	162.31331	38.867638	-943.03857	295.71756	565.94031	-1426.6056	105.8692	351.42795	-1523.7732	142.74026	274.58218	-1521.854	290.9827	70.373535	-1435.453	317.15845	52.847153	-1363.3032	164.21736	41.152298	-1466.103
